<svg width="271" height="111" viewBox="0 0 271 111" fill="none" xmlns="http://www.w3.org/2000/svg">
<path d="M5.6238 107.625V98.3946H8.7568C9.49346 98.3946 10.1348 98.516 10.6808 98.7586C11.2355 99.0013 11.6948 99.3306 12.0588 99.7466C12.4315 100.163 12.7088 100.652 12.8908 101.216C13.0815 101.77 13.1768 102.364 13.1768 102.997C13.1768 103.699 13.0728 104.336 12.8648 104.908C12.6568 105.471 12.3578 105.956 11.9678 106.364C11.5865 106.762 11.1228 107.074 10.5768 107.3C10.0395 107.516 9.4328 107.625 8.7568 107.625H5.6238ZM12.2668 102.997C12.2668 102.442 12.1888 101.935 12.0328 101.476C11.8768 101.008 11.6471 100.605 11.3438 100.267C11.0491 99.9286 10.6851 99.6686 10.2518 99.4866C9.81846 99.296 9.32013 99.2006 8.7568 99.2006H6.5338V106.819H8.7568C9.3288 106.819 9.83146 106.723 10.2648 106.533C10.7068 106.333 11.0751 106.065 11.3698 105.727C11.6645 105.38 11.8855 104.977 12.0328 104.518C12.1888 104.05 12.2668 103.543 12.2668 102.997ZM17.5767 98.3946H18.3437L22.1787 107.625H21.2167L20.0207 104.739H15.8737L14.6907 107.625H13.7157L17.5767 98.3946ZM19.8127 104.024L17.9537 99.4606L16.0687 104.024H19.8127ZM29.2698 99.2006H25.9808V107.625H25.0708V99.2006H21.7818V98.3946H29.2698V99.2006ZM32.7283 98.3946H33.4953L37.3303 107.625H36.3683L35.1723 104.739H31.0253L29.8423 107.625H28.8673L32.7283 98.3946ZM34.9643 104.024L33.1053 99.4606L31.2203 104.024H34.9643ZM45.2641 107.625V98.3946H48.3971C49.1338 98.3946 49.7751 98.516 50.3211 98.7586C50.8758 99.0013 51.3351 99.3306 51.6991 99.7466C52.0718 100.163 52.3491 100.652 52.5311 101.216C52.7218 101.77 52.8171 102.364 52.8171 102.997C52.8171 103.699 52.7131 104.336 52.5051 104.908C52.2971 105.471 51.9981 105.956 51.6081 106.364C51.2268 106.762 50.7631 107.074 50.2171 107.3C49.6798 107.516 49.0731 107.625 48.3971 107.625H45.2641ZM51.9071 102.997C51.9071 102.442 51.8291 101.935 51.6731 101.476C51.5171 101.008 51.2875 100.605 50.9841 100.267C50.6895 99.9286 50.3255 99.6686 49.8921 99.4866C49.4588 99.296 48.9605 99.2006 48.3971 99.2006H46.1741V106.819H48.3971C48.9691 106.819 49.4718 106.723 49.9051 106.533C50.3471 106.333 50.7155 106.065 51.0101 105.727C51.3048 105.38 51.5258 104.977 51.6731 104.518C51.8291 104.05 51.9071 103.543 51.9071 102.997ZM54.6871 107.625V98.3946H58.5871C58.9858 98.3946 59.3498 98.4813 59.6791 98.6546C60.0171 98.8193 60.3075 99.0403 60.5501 99.3176C60.7928 99.5863 60.9791 99.894 61.1091 100.241C61.2478 100.587 61.3171 100.938 61.3171 101.294C61.3171 101.632 61.2651 101.957 61.1611 102.269C61.0658 102.572 60.9271 102.849 60.7451 103.101C60.5718 103.343 60.3595 103.551 60.1081 103.725C59.8568 103.889 59.5751 104.002 59.2631 104.063L61.5251 107.625H60.4981L58.3271 104.219H55.5971V107.625H54.6871ZM55.5971 103.413H58.6131C58.8818 103.413 59.1245 103.356 59.3411 103.244C59.5665 103.122 59.7571 102.962 59.9131 102.763C60.0691 102.563 60.1905 102.338 60.2771 102.087C60.3638 101.835 60.4071 101.571 60.4071 101.294C60.4071 101.016 60.3551 100.752 60.2511 100.501C60.1558 100.241 60.0215 100.015 59.8481 99.8246C59.6835 99.634 59.4841 99.4823 59.2501 99.3696C59.0248 99.257 58.7865 99.2006 58.5351 99.2006H55.5971V103.413ZM63.3103 107.625V98.3946H64.2203V107.625H63.3103ZM66.6259 98.3946L69.9279 106.494L73.2169 98.3946H74.1659L70.3179 107.625H69.5249L65.6769 98.3946H66.6259ZM81.8191 106.819V107.625H75.6181V98.3946H81.7021V99.2006H76.5281V102.529H81.0391V103.296H76.5281V106.819H81.8191ZM84.58 100.085V107.625H83.67V98.3946H84.372L90.482 106.078V98.4076H91.392V107.625H90.599L84.58 100.085ZM97.2855 107.625V98.3946H100.418C101.155 98.3946 101.796 98.516 102.342 98.7586C102.897 99.0013 103.356 99.3306 103.72 99.7466C104.093 100.163 104.37 100.652 104.552 101.216C104.743 101.77 104.838 102.364 104.838 102.997C104.838 103.699 104.734 104.336 104.526 104.908C104.318 105.471 104.019 105.956 103.629 106.364C103.248 106.762 102.784 107.074 102.238 107.3C101.701 107.516 101.094 107.625 100.418 107.625H97.2855ZM103.928 102.997C103.928 102.442 103.85 101.935 103.694 101.476C103.538 101.008 103.309 100.605 103.005 100.267C102.711 99.9286 102.347 99.6686 101.913 99.4866C101.48 99.296 100.982 99.2006 100.418 99.2006H98.1955V106.819H100.418C100.99 106.819 101.493 106.723 101.926 106.533C102.368 106.333 102.737 106.065 103.031 105.727C103.326 105.38 103.547 104.977 103.694 104.518C103.85 104.05 103.928 103.543 103.928 102.997ZM106.708 107.625V98.3946H107.618V107.625H106.708ZM116.732 106.273C115.874 107.217 114.886 107.69 113.768 107.69C113.144 107.69 112.568 107.555 112.039 107.287C111.519 107.018 111.064 106.663 110.674 106.221C110.293 105.779 109.994 105.28 109.777 104.726C109.56 104.162 109.452 103.586 109.452 102.997C109.452 102.381 109.556 101.792 109.764 101.229C109.981 100.665 110.28 100.171 110.661 99.7466C111.042 99.3133 111.493 98.971 112.013 98.7196C112.533 98.4596 113.101 98.3296 113.716 98.3296C114.167 98.3296 114.578 98.3816 114.951 98.4856C115.324 98.581 115.653 98.7196 115.939 98.9016C116.234 99.075 116.485 99.2873 116.693 99.5386C116.91 99.7813 117.092 100.05 117.239 100.345L116.537 100.813C116.234 100.241 115.839 99.8203 115.354 99.5516C114.869 99.283 114.318 99.1486 113.703 99.1486C113.192 99.1486 112.728 99.257 112.312 99.4736C111.905 99.6903 111.554 99.9806 111.259 100.345C110.973 100.7 110.752 101.112 110.596 101.58C110.44 102.039 110.362 102.516 110.362 103.01C110.362 103.53 110.449 104.024 110.622 104.492C110.804 104.96 111.051 105.371 111.363 105.727C111.675 106.073 112.039 106.351 112.455 106.559C112.88 106.767 113.339 106.871 113.833 106.871C114.362 106.871 114.864 106.749 115.341 106.507C115.826 106.255 116.29 105.861 116.732 105.324V103.79H114.678V103.088H117.499V107.625H116.732V106.273ZM119.499 107.625V98.3946H120.409V107.625H119.499ZM129.405 99.2006H126.116V107.625H125.206V99.2006H121.917V98.3946H129.405V99.2006ZM132.864 98.3946H133.631L137.466 107.625H136.504L135.308 104.739H131.161L129.978 107.625H129.003L132.864 98.3946ZM135.1 104.024L133.241 99.4606L131.356 104.024H135.1ZM138.919 107.625V98.3946H139.829V106.819H145.159V107.625H138.919ZM155.9 99.2006H152.611V107.625H151.701V99.2006H148.412V98.3946H155.9V99.2006ZM157.413 107.625V98.3946H161.313C161.711 98.3946 162.075 98.4813 162.405 98.6546C162.743 98.8193 163.033 99.0403 163.276 99.3176C163.518 99.5863 163.705 99.894 163.835 100.241C163.973 100.587 164.043 100.938 164.043 101.294C164.043 101.632 163.991 101.957 163.887 102.269C163.791 102.572 163.653 102.849 163.471 103.101C163.297 103.343 163.085 103.551 162.834 103.725C162.582 103.889 162.301 104.002 161.989 104.063L164.251 107.625H163.224L161.053 104.219H158.323V107.625H157.413ZM158.323 103.413H161.339C161.607 103.413 161.85 103.356 162.067 103.244C162.292 103.122 162.483 102.962 162.639 102.763C162.795 102.563 162.916 102.338 163.003 102.087C163.089 101.835 163.133 101.571 163.133 101.294C163.133 101.016 163.081 100.752 162.977 100.501C162.881 100.241 162.747 100.015 162.574 99.8246C162.409 99.634 162.21 99.4823 161.976 99.3696C161.75 99.257 161.512 99.2006 161.261 99.2006H158.323V103.413ZM168.756 98.3946H169.523L173.358 107.625H172.396L171.2 104.739H167.053L165.87 107.625H164.895L168.756 98.3946ZM170.992 104.024L169.133 99.4606L167.248 104.024H170.992ZM175.721 100.085V107.625H174.811V98.3946H175.513L181.623 106.078V98.4076H182.533V107.625H181.74L175.721 100.085ZM190.378 100.124C190.118 99.829 189.772 99.5906 189.338 99.4086C188.905 99.2266 188.411 99.1356 187.856 99.1356C187.042 99.1356 186.448 99.2916 186.075 99.6036C185.703 99.907 185.516 100.323 185.516 100.852C185.516 101.129 185.564 101.359 185.659 101.541C185.763 101.714 185.919 101.866 186.127 101.996C186.335 102.126 186.6 102.238 186.92 102.334C187.25 102.429 187.635 102.524 188.077 102.62C188.571 102.724 189.013 102.841 189.403 102.971C189.802 103.101 190.14 103.265 190.417 103.465C190.695 103.655 190.907 103.889 191.054 104.167C191.202 104.444 191.275 104.791 191.275 105.207C191.275 105.631 191.193 106 191.028 106.312C190.864 106.624 190.634 106.884 190.339 107.092C190.045 107.3 189.694 107.456 189.286 107.56C188.879 107.655 188.433 107.703 187.947 107.703C186.517 107.703 185.282 107.256 184.242 106.364L184.697 105.623C184.862 105.796 185.057 105.961 185.282 106.117C185.516 106.273 185.772 106.411 186.049 106.533C186.335 106.645 186.639 106.736 186.959 106.806C187.28 106.866 187.618 106.897 187.973 106.897C188.71 106.897 189.282 106.767 189.689 106.507C190.105 106.238 190.313 105.835 190.313 105.298C190.313 105.012 190.253 104.773 190.131 104.583C190.019 104.383 189.845 104.214 189.611 104.076C189.377 103.928 189.087 103.803 188.74 103.699C188.394 103.595 187.991 103.491 187.531 103.387C187.046 103.274 186.621 103.157 186.257 103.036C185.893 102.914 185.586 102.763 185.334 102.581C185.083 102.399 184.892 102.182 184.762 101.931C184.641 101.671 184.58 101.354 184.58 100.982C184.58 100.557 184.658 100.18 184.814 99.8506C184.979 99.5126 185.209 99.2353 185.503 99.0186C185.798 98.7933 186.145 98.6243 186.543 98.5116C186.942 98.3903 187.384 98.3296 187.869 98.3296C188.485 98.3296 189.031 98.425 189.507 98.6156C189.993 98.7976 190.43 99.0576 190.82 99.3956L190.378 100.124ZM193.01 107.625V98.3946H199.068V99.2006H193.92V102.594H198.262V103.348H193.92V107.625H193.01ZM204.31 107.69C203.668 107.69 203.079 107.56 202.542 107.3C202.013 107.031 201.558 106.68 201.177 106.247C200.795 105.805 200.501 105.302 200.293 104.739C200.085 104.175 199.981 103.599 199.981 103.01C199.981 102.394 200.089 101.805 200.306 101.242C200.531 100.678 200.839 100.18 201.229 99.7466C201.619 99.3133 202.078 98.971 202.607 98.7196C203.135 98.4596 203.707 98.3296 204.323 98.3296C204.964 98.3296 205.549 98.4683 206.078 98.7456C206.615 99.0143 207.07 99.3696 207.443 99.8116C207.824 100.254 208.119 100.756 208.327 101.32C208.535 101.874 208.639 102.442 208.639 103.023C208.639 103.638 208.526 104.227 208.301 104.791C208.084 105.354 207.781 105.852 207.391 106.286C207.009 106.71 206.554 107.053 206.026 107.313C205.497 107.564 204.925 107.69 204.31 107.69ZM200.891 103.01C200.891 103.512 200.973 103.998 201.138 104.466C201.302 104.925 201.536 105.337 201.84 105.701C202.143 106.056 202.503 106.342 202.919 106.559C203.335 106.767 203.798 106.871 204.31 106.871C204.83 106.871 205.302 106.758 205.727 106.533C206.151 106.307 206.511 106.013 206.806 105.649C207.1 105.285 207.326 104.873 207.482 104.414C207.646 103.954 207.729 103.486 207.729 103.01C207.729 102.507 207.642 102.026 207.469 101.567C207.304 101.099 207.07 100.687 206.767 100.332C206.463 99.9763 206.104 99.6946 205.688 99.4866C205.272 99.27 204.812 99.1616 204.31 99.1616C203.79 99.1616 203.317 99.2743 202.893 99.4996C202.468 99.7163 202.108 100.007 201.814 100.371C201.519 100.735 201.289 101.146 201.125 101.606C200.969 102.065 200.891 102.533 200.891 103.01ZM210.484 107.625V98.3946H214.384C214.783 98.3946 215.147 98.4813 215.476 98.6546C215.814 98.8193 216.105 99.0403 216.347 99.3176C216.59 99.5863 216.776 99.894 216.906 100.241C217.045 100.587 217.114 100.938 217.114 101.294C217.114 101.632 217.062 101.957 216.958 102.269C216.863 102.572 216.724 102.849 216.542 103.101C216.369 103.343 216.157 103.551 215.905 103.725C215.654 103.889 215.372 104.002 215.06 104.063L217.322 107.625H216.295L214.124 104.219H211.394V107.625H210.484ZM211.394 103.413H214.41C214.679 103.413 214.922 103.356 215.138 103.244C215.364 103.122 215.554 102.962 215.71 102.763C215.866 102.563 215.988 102.338 216.075 102.087C216.161 101.835 216.204 101.571 216.204 101.294C216.204 101.016 216.152 100.752 216.048 100.501C215.953 100.241 215.819 100.015 215.645 99.8246C215.481 99.634 215.281 99.4823 215.047 99.3696C214.822 99.257 214.584 99.2006 214.332 99.2006H211.394V103.413ZM227.285 107.625V100.046L223.918 105.909H223.385L220.018 100.046V107.625H219.108V98.3946H220.044L223.645 104.713L227.272 98.3946H228.195V107.625H227.285ZM233.498 98.3946H234.265L238.1 107.625H237.138L235.942 104.739H231.795L230.612 107.625H229.637L233.498 98.3946ZM235.734 104.024L233.875 99.4606L231.99 104.024H235.734ZM245.191 99.2006H241.902V107.625H240.992V99.2006H237.703V98.3946H245.191V99.2006ZM246.704 107.625V98.3946H247.614V107.625H246.704ZM253.776 107.69C253.135 107.69 252.546 107.56 252.008 107.3C251.48 107.031 251.025 106.68 250.643 106.247C250.262 105.805 249.967 105.302 249.759 104.739C249.551 104.175 249.447 103.599 249.447 103.01C249.447 102.394 249.556 101.805 249.772 101.242C249.998 100.678 250.305 100.18 250.695 99.7466C251.085 99.3133 251.545 98.971 252.073 98.7196C252.602 98.4596 253.174 98.3296 253.789 98.3296C254.431 98.3296 255.016 98.4683 255.544 98.7456C256.082 99.0143 256.537 99.3696 256.909 99.8116C257.291 100.254 257.585 100.756 257.793 101.32C258.001 101.874 258.105 102.442 258.105 103.023C258.105 103.638 257.993 104.227 257.767 104.791C257.551 105.354 257.247 105.852 256.857 106.286C256.476 106.71 256.021 107.053 255.492 107.313C254.964 107.564 254.392 107.69 253.776 107.69ZM250.357 103.01C250.357 103.512 250.44 103.998 250.604 104.466C250.769 104.925 251.003 105.337 251.306 105.701C251.61 106.056 251.969 106.342 252.385 106.559C252.801 106.767 253.265 106.871 253.776 106.871C254.296 106.871 254.769 106.758 255.193 106.533C255.618 106.307 255.978 106.013 256.272 105.649C256.567 105.285 256.792 104.873 256.948 104.414C257.113 103.954 257.195 103.486 257.195 103.01C257.195 102.507 257.109 102.026 256.935 101.567C256.771 101.099 256.537 100.687 256.233 100.332C255.93 99.9763 255.57 99.6946 255.154 99.4866C254.738 99.27 254.279 99.1616 253.776 99.1616C253.256 99.1616 252.784 99.2743 252.359 99.4996C251.935 99.7163 251.575 100.007 251.28 100.371C250.986 100.735 250.756 101.146 250.591 101.606C250.435 102.065 250.357 102.533 250.357 103.01ZM260.861 100.085V107.625H259.951V98.3946H260.653L266.763 106.078V98.4076H267.673V107.625H266.88L260.861 100.085Z" fill="white"/>
<path d="M53.76 78.008C51.2 79.736 48.416 81.08 45.408 82.04C42.464 83 39.328 83.48 36 83.48C31.136 83.48 26.688 82.488 22.656 80.504C18.688 78.52 15.264 75.928 12.384 72.728C9.504 69.528 7.264 65.848 5.664 61.688C4.128 57.528 3.36 53.272 3.36 48.92C3.36 44.376 4.192 40.024 5.856 35.864C7.52 31.704 9.792 28.024 12.672 24.824C15.616 21.624 19.072 19.096 23.04 17.24C27.072 15.32 31.456 14.36 36.192 14.36C41.056 14.36 45.472 15.384 49.44 17.432C53.472 19.416 56.896 22.04 59.712 25.304C62.592 28.568 64.8 32.28 66.336 36.44C67.936 40.536 68.736 44.728 68.736 49.016C68.736 53.56 67.936 57.88 66.336 61.976C64.736 66.008 62.496 69.624 59.616 72.824L68.544 83H58.176L53.76 78.008ZM36.096 73.784C38.208 73.784 40.192 73.496 42.048 72.92C43.904 72.344 45.6 71.544 47.136 70.52L37.44 59.288H47.808L52.704 64.952C54.368 62.712 55.616 60.216 56.448 57.464C57.28 54.648 57.696 51.8 57.696 48.92C57.696 45.656 57.184 42.552 56.16 39.608C55.136 36.6 53.664 33.944 51.744 31.64C49.888 29.336 47.616 27.512 44.928 26.168C42.304 24.76 39.36 24.056 36.096 24.056C32.64 24.056 29.568 24.792 26.88 26.264C24.192 27.672 21.92 29.56 20.064 31.928C18.208 34.232 16.768 36.888 15.744 39.896C14.784 42.84 14.304 45.848 14.304 48.92C14.304 52.12 14.816 55.224 15.84 58.232C16.864 61.24 18.304 63.896 20.16 66.2C22.08 68.504 24.384 70.36 27.072 71.768C29.76 73.112 32.768 73.784 36.096 73.784ZM86.832 48.92H89.664L103.824 83H100.272L95.856 72.344H80.544L76.176 83H72.576L86.832 48.92ZM95.088 69.704L88.224 52.856L81.264 69.704H95.088ZM129.527 51.896H117.383V83H114.023V51.896H101.879V48.92H129.527V51.896ZM141.816 48.92H144.648L158.808 83H155.256L150.84 72.344H135.528L131.16 83H127.56L141.816 48.92ZM150.072 69.704L143.208 52.856L136.248 69.704H150.072ZM163.694 83V48.92H167.054V80.024H186.734V83H163.694ZM186.058 48.92L197.194 67.256L208.426 48.92H212.074L198.874 70.328V83H195.514V70.232L182.362 48.92H186.058ZM236.161 55.304C235.201 54.216 233.921 53.336 232.321 52.664C230.721 51.992 228.897 51.656 226.849 51.656C223.841 51.656 221.649 52.232 220.273 53.384C218.897 54.504 218.209 56.04 218.209 57.992C218.209 59.016 218.385 59.864 218.737 60.536C219.121 61.176 219.697 61.736 220.465 62.216C221.233 62.696 222.209 63.112 223.393 63.464C224.609 63.816 226.033 64.168 227.665 64.52C229.489 64.904 231.121 65.336 232.561 65.816C234.033 66.296 235.281 66.904 236.305 67.64C237.329 68.344 238.113 69.208 238.657 70.232C239.201 71.256 239.473 72.536 239.473 74.072C239.473 75.64 239.169 77 238.561 78.152C237.953 79.304 237.105 80.264 236.017 81.032C234.929 81.8 233.633 82.376 232.129 82.76C230.625 83.112 228.977 83.288 227.185 83.288C221.905 83.288 217.345 81.64 213.505 78.344L215.185 75.608C215.793 76.248 216.513 76.856 217.345 77.432C218.209 78.008 219.153 78.52 220.177 78.968C221.233 79.384 222.353 79.72 223.537 79.976C224.721 80.2 225.969 80.312 227.281 80.312C230.001 80.312 232.113 79.832 233.617 78.872C235.153 77.88 235.921 76.392 235.921 74.408C235.921 73.352 235.697 72.472 235.249 71.768C234.833 71.032 234.193 70.408 233.329 69.896C232.465 69.352 231.393 68.888 230.113 68.504C228.833 68.12 227.345 67.736 225.649 67.352C223.857 66.936 222.289 66.504 220.945 66.056C219.601 65.608 218.465 65.048 217.537 64.376C216.609 63.704 215.905 62.904 215.425 61.976C214.977 61.016 214.753 59.848 214.753 58.472C214.753 56.904 215.041 55.512 215.617 54.296C216.225 53.048 217.073 52.024 218.161 51.224C219.249 50.392 220.529 49.768 222.001 49.352C223.473 48.904 225.105 48.68 226.897 48.68C229.169 48.68 231.185 49.032 232.945 49.736C234.737 50.408 236.353 51.368 237.793 52.616L236.161 55.304ZM269.355 51.896H257.211V83H253.851V51.896H241.707V48.92H269.355V51.896Z" fill="white"/>
<path d="M267.41 88.8877H7.40985V90.8877H267.41V88.8877Z" fill="#FF6B4D"/>
<path d="M201 86H194V93H201V86Z" fill="white"/>
<path d="M19.0778 42.0619H22.2278C22.8438 42.0619 23.3758 42.1599 23.8238 42.3559C24.2811 42.5519 24.6544 42.8226 24.9438 43.1679C25.2424 43.5039 25.4618 43.9052 25.6018 44.3719C25.7511 44.8292 25.8258 45.3239 25.8258 45.8559C25.8258 46.7426 25.6811 47.5592 25.3918 48.3059C25.1118 49.0526 24.7151 49.7012 24.2018 50.2519C23.6978 50.8026 23.0958 51.2319 22.3958 51.5399C21.6958 51.8479 20.9351 52.0019 20.1138 52.0019H16.9638L19.0778 42.0619ZM20.2538 51.3579C21.0004 51.3579 21.6724 51.2132 22.2698 50.9239C22.8671 50.6252 23.3711 50.2286 23.7818 49.7339C24.2018 49.2392 24.5238 48.6699 24.7478 48.0259C24.9718 47.3726 25.0838 46.6912 25.0838 45.9819C25.0838 45.5059 25.0184 45.0672 24.8878 44.6659C24.7664 44.2646 24.5798 43.9192 24.3278 43.6299C24.0758 43.3406 23.7631 43.1166 23.3898 42.9579C23.0164 42.7899 22.5824 42.7059 22.0878 42.7059H19.6518L17.8178 51.3579H20.2538ZM27.9324 44.7219H28.6324L27.0924 52.0019H26.3924L27.9324 44.7219ZM28.5624 41.7819H29.2624L28.9964 43.0699H28.2964L28.5624 41.7819ZM31.3508 55.1239C30.5482 55.1239 29.9368 54.9699 29.5168 54.6619C29.1062 54.3632 28.8122 53.9572 28.6348 53.4439L29.1668 53.1219C29.3348 53.6166 29.6288 53.9759 30.0488 54.1999C30.4688 54.4332 30.9448 54.5499 31.4768 54.5499C31.8222 54.5499 32.1628 54.4986 32.4988 54.3959C32.8348 54.2932 33.1382 54.1392 33.4088 53.9339C33.6888 53.7379 33.9268 53.4906 34.1228 53.1919C34.3282 52.8932 34.4728 52.5432 34.5568 52.1419L34.8928 50.5459C34.7062 50.7792 34.4962 50.9939 34.2628 51.1899C34.0295 51.3766 33.7868 51.5399 33.5348 51.6799C33.2828 51.8199 33.0215 51.9272 32.7508 52.0019C32.4802 52.0766 32.2188 52.1139 31.9668 52.1139C31.5655 52.1139 31.2062 52.0299 30.8888 51.8619C30.5715 51.6939 30.3008 51.4699 30.0768 51.1899C29.8622 50.9099 29.6942 50.5879 29.5728 50.2239C29.4608 49.8599 29.4048 49.4772 29.4048 49.0759C29.4048 48.5159 29.5168 47.9699 29.7408 47.4379C29.9648 46.8966 30.2635 46.4159 30.6368 45.9959C31.0195 45.5759 31.4582 45.2399 31.9528 44.9879C32.4475 44.7266 32.9702 44.5959 33.5208 44.5959C34.1182 44.5959 34.6035 44.7639 34.9768 45.0999C35.3595 45.4266 35.6582 45.8279 35.8728 46.3039L36.2088 44.7219H36.8388L35.2568 52.1419C35.1542 52.6366 34.9722 53.0706 34.7108 53.4439C34.4588 53.8172 34.1555 54.1252 33.8008 54.3679C33.4462 54.6199 33.0588 54.8066 32.6388 54.9279C32.2188 55.0586 31.7895 55.1239 31.3508 55.1239ZM32.2748 51.5119C32.5642 51.5119 32.8582 51.4559 33.1568 51.3439C33.4648 51.2226 33.7495 51.0686 34.0108 50.8819C34.2722 50.6952 34.5008 50.4852 34.6968 50.2519C34.8928 50.0186 35.0328 49.7852 35.1168 49.5519L35.6208 47.1579C35.5742 46.8779 35.4855 46.6212 35.3548 46.3879C35.2335 46.1452 35.0795 45.9399 34.8928 45.7719C34.7062 45.6039 34.4915 45.4732 34.2488 45.3799C34.0062 45.2772 33.7542 45.2259 33.4928 45.2259C33.0168 45.2259 32.5735 45.3426 32.1628 45.5759C31.7615 45.8092 31.4068 46.1079 31.0988 46.4719C30.8002 46.8266 30.5622 47.2279 30.3848 47.6759C30.2168 48.1146 30.1328 48.5439 30.1328 48.9639C30.1328 49.3092 30.1842 49.6359 30.2868 49.9439C30.3895 50.2519 30.5342 50.5226 30.7208 50.7559C30.9075 50.9892 31.1315 51.1759 31.3928 51.3159C31.6542 51.4466 31.9482 51.5119 32.2748 51.5119ZM38.952 44.7219H39.652L38.112 52.0019H37.412L38.952 44.7219ZM39.582 41.7819H40.282L40.016 43.0699H39.316L39.582 41.7819ZM41.8664 52.0859C41.5397 52.0859 41.269 52.0019 41.0544 51.8339C40.8397 51.6659 40.7324 51.4186 40.7324 51.0919C40.7324 51.0452 40.7324 50.9986 40.7324 50.9519C40.7417 50.8959 40.751 50.8399 40.7604 50.7839L41.9364 45.2959H40.9564L41.0824 44.7219H42.0624L42.5804 42.2299H43.2804L42.7624 44.7219H44.3724L44.2464 45.2959H42.6364L41.5864 50.2239C41.521 50.5226 41.4884 50.7092 41.4884 50.7839C41.4884 50.9986 41.5537 51.1619 41.6844 51.2739C41.8244 51.3766 41.9924 51.4279 42.1884 51.4279C42.3284 51.4279 42.459 51.4139 42.5804 51.3859C42.711 51.3579 42.8277 51.3252 42.9304 51.2879C43.033 51.2412 43.117 51.2039 43.1824 51.1759C43.257 51.1386 43.3084 51.1106 43.3364 51.0919L43.4204 51.6519C43.383 51.6799 43.313 51.7172 43.2104 51.7639C43.117 51.8106 43.0004 51.8619 42.8604 51.9179C42.7204 51.9646 42.5664 52.0019 42.3984 52.0299C42.2304 52.0672 42.053 52.0859 41.8664 52.0859ZM47.1299 52.1419C46.7286 52.1419 46.3646 52.0579 46.0379 51.8899C45.7206 51.7219 45.4499 51.4979 45.2259 51.2179C45.0019 50.9379 44.8293 50.6159 44.7079 50.2519C44.5959 49.8786 44.5399 49.4866 44.5399 49.0759C44.5399 48.5066 44.6519 47.9559 44.8759 47.4239C45.0999 46.8826 45.3986 46.4019 45.7719 45.9819C46.1546 45.5619 46.5886 45.2259 47.0739 44.9739C47.5593 44.7219 48.0679 44.5959 48.5999 44.5959C48.9079 44.5959 49.1833 44.6426 49.4259 44.7359C49.6779 44.8292 49.9019 44.9552 50.0979 45.1139C50.2939 45.2632 50.4619 45.4406 50.6019 45.6459C50.7419 45.8512 50.8539 46.0706 50.9379 46.3039L51.2739 44.7219H51.9879L50.6439 50.9939C50.6253 51.0686 50.6159 51.1246 50.6159 51.1619C50.6159 51.3019 50.6953 51.3719 50.8539 51.3719L50.7139 52.0019C50.6673 52.0112 50.6253 52.0159 50.5879 52.0159C50.5599 52.0252 50.5319 52.0299 50.5039 52.0299C50.3173 52.0299 50.1726 51.9832 50.0699 51.8899C49.9766 51.7966 49.9299 51.6752 49.9299 51.5259C49.9299 51.4979 49.9299 51.4652 49.9299 51.4279C49.9393 51.3812 49.9486 51.3252 49.9579 51.2599C49.9766 51.1852 49.9953 51.0919 50.0139 50.9799C50.0326 50.8679 50.0606 50.7232 50.0979 50.5459C49.7153 51.0312 49.2579 51.4186 48.7259 51.7079C48.1939 51.9972 47.6619 52.1419 47.1299 52.1419ZM47.3819 51.5119C47.6339 51.5119 47.9093 51.4606 48.2079 51.3579C48.5066 51.2459 48.7913 51.1012 49.0619 50.9239C49.3419 50.7466 49.5893 50.5412 49.8039 50.3079C50.0186 50.0652 50.1679 49.8132 50.2519 49.5519L50.7559 47.1579C50.7186 46.8966 50.6346 46.6492 50.5039 46.4159C50.3826 46.1826 50.2239 45.9772 50.0279 45.7999C49.8413 45.6226 49.6266 45.4826 49.3839 45.3799C49.1413 45.2772 48.8799 45.2259 48.5999 45.2259C48.1519 45.2259 47.7273 45.3379 47.3259 45.5619C46.9246 45.7859 46.5699 46.0799 46.2619 46.4439C45.9633 46.7986 45.7206 47.1999 45.5339 47.6479C45.3566 48.0959 45.2679 48.5439 45.2679 48.9919C45.2679 49.3279 45.3193 49.6499 45.4219 49.9579C45.5246 50.2659 45.6693 50.5366 45.8559 50.7699C46.0426 50.9939 46.2666 51.1759 46.5279 51.3159C46.7893 51.4466 47.0739 51.5119 47.3819 51.5119ZM53.8754 52.0859C53.5581 52.0859 53.3107 52.0019 53.1334 51.8339C52.9561 51.6566 52.8674 51.4186 52.8674 51.1199C52.8674 51.0172 52.8814 50.9006 52.9094 50.7699L54.8134 41.7819H55.5134L53.6514 50.5599C53.6421 50.6066 53.6327 50.6486 53.6234 50.6859C53.6234 50.7232 53.6234 50.7652 53.6234 50.8119C53.6234 51.0079 53.6794 51.1619 53.7914 51.2739C53.9127 51.3859 54.0854 51.4419 54.3094 51.4419C54.4121 51.4419 54.5334 51.4326 54.6734 51.4139C54.8134 51.3859 54.9441 51.3486 55.0654 51.3019V51.8619C54.9067 51.9272 54.7061 51.9786 54.4634 52.0159C54.2301 52.0626 54.0341 52.0859 53.8754 52.0859Z" fill="white"/>
</svg>
